HIERARCHY
ROOT Hips
{
	OFFSET 0.00000 0.00000 0.00000
	CHANNELS 6 Xposition Yposition Zposition Zrotation Yrotation Xrotation 
	JOINT LHipJoint
	{
		OFFSET 0 0 0
		CHANNELS 3 Zrotation Yrotation Xrotation
		JOINT LeftHip
		{
			OFFSET 1.58895 -1.83665 0.71753
			CHANNELS 3 Zrotation Yrotation Xrotation
			JOINT LeftKnee
			{
				OFFSET 2.50528 -6.88321 0.00000
				CHANNELS 3 Zrotation Yrotation Xrotation
				JOINT LeftAnkle
				{
					OFFSET 2.63244 -7.23257 0.00000
					CHANNELS 3 Zrotation Yrotation Xrotation
					JOINT LeftToe
					{
						OFFSET 0.23691 -0.65090 1.72750
						CHANNELS 3 Zrotation Yrotation Xrotation
						End Site
						{
							OFFSET 0.00000 -0.00000 0.92561
						}
					}
				}
			}
		}
	}
	JOINT RHipJoint
	{
		OFFSET 0 0 0
		CHANNELS 3 Zrotation Yrotation Xrotation
		JOINT RightHip
		{
			OFFSET -1.51435 -1.83665 0.71753
			CHANNELS 3 Zrotation Yrotation Xrotation
			JOINT RightKnee
			{
				OFFSET -2.54551 -6.99375 0.00000
				CHANNELS 3 Zrotation Yrotation Xrotation
				JOINT RightAnkle
				{
					OFFSET -2.66027 -7.30903 0.00000
					CHANNELS 3 Zrotation Yrotation Xrotation
					JOINT RightToe
					{
						OFFSET -0.22981 -0.63138 2.03959
						CHANNELS 3 Zrotation Yrotation Xrotation
						End Site
						{
							OFFSET -0.00000 -0.00000 1.07060
						}
					}
				}
			}
		}
	}
	JOINT lowerback
	{
		OFFSET 0 0 0
		CHANNELS 3 Zrotation Yrotation Xrotation
		JOINT Chest
		{
			OFFSET -0.02651 1.86275 -0.11152
			CHANNELS 3 Zrotation Yrotation Xrotation
			JOINT Chest2
			{
				OFFSET 0.01019 1.86224 0.04087
				CHANNELS 3 Zrotation Yrotation Xrotation
				JOINT lowerneck
				{
					OFFSET 0 0 0
					CHANNELS 3 Zrotation Yrotation Xrotation
					JOINT Neck
					{
						OFFSET -0.01926 1.80512 0.08867
						CHANNELS 3 Zrotation Yrotation Xrotation
						JOINT Head
						{
							OFFSET 0.05516 1.76451 -0.38475
							CHANNELS 3 Zrotation Yrotation Xrotation
							End Site
							{
								OFFSET 0.01592 1.82587 -0.14001
							}
						}
					}
				}
				JOINT LeftCollar
				{
					OFFSET 0 0 0
					CHANNELS 3 Zrotation Yrotation Xrotation
					JOINT LeftShoulder
					{
						OFFSET 3.47116 1.51376 0.14491
CHANNELS 3 Zrotation Xrotation Yrotation
						JOINT LeftElbow
						{
OFFSET 0 -4.780950 0.000000
CHANNELS 3 Zrotation Xrotation Yrotation
							JOINT LeftWrist
							{
OFFSET 0 -3.586150 -0.000000
CHANNELS 3 Zrotation Xrotation Yrotation
								JOINT lhand
								{
									OFFSET 0 0 0
CHANNELS 3 Zrotation Xrotation Yrotation
									JOINT LFingers
									{
OFFSET 0 -0.659810 0.000000
CHANNELS 3 Zrotation Xrotation Yrotation
										End Site
										{
OFFSET 0 -0.531960 0.000000
										}
									}
								}
								JOINT LThumb
								{
OFFSET 0 0.000000 0.000000
CHANNELS 3 Zrotation Xrotation Yrotation
									End Site
									{
OFFSET 0 -0.540080 0.540080
									}
								}
							}
						}
					}
				}
				JOINT RightCollar
				{
					OFFSET 0 0 0
					CHANNELS 3 Zrotation Yrotation Xrotation
					JOINT RightShoulder
					{
						OFFSET -3.31725 1.61216 0.35156
CHANNELS 3 Zrotation Xrotation Yrotation
						JOINT RightElbow
						{
OFFSET 0 -4.489130 0.000000
CHANNELS 3 Zrotation Xrotation Yrotation
							JOINT RightWrist
							{
OFFSET 0 -3.705100 0.000000
CHANNELS 3 Zrotation Xrotation Yrotation
								JOINT rhand
								{
									OFFSET 0 0 0
CHANNELS 3 Zrotation Xrotation Yrotation
									JOINT RFingers
									{
OFFSET 0 -0.449140 0.000000
CHANNELS 3 Zrotation Xrotation Yrotation
										End Site
										{
OFFSET 0 -0.362110 0.000000
										}
									}
								}
								JOINT RThumb
								{
OFFSET 0 0.000000 0.000000
CHANNELS 3 Zrotation Xrotation Yrotation
									End Site
									{
OFFSET 0 -0.367630 0.367630
									}
								}
							}
						}
					}
				}
			}
		}
	}
}
MOTION
Frames: 12
Frame Time: 0.008333333333333333
-0.685000 18.152800 5.772300 -0.788400 -1.459800 2.514200 0.000000 0.000000 0.000000 -12.927600 -0.842100 11.520000 0.154100 -2.529200 -6.970500 -0.160800 10.730600 -12.496000 0.666300 -5.220200 -14.537700 0.000000 0.000000 0.000000 14.513100 -1.302000 12.877500 -0.494200 4.507100 -12.507800 -0.070300 -10.185300 -15.578000 -0.014500 -0.777200 2.135900 -1.141100 0.364800 1.960700 0.274700 0.452700 -2.743900 0.898200 0.263400 -3.934400 -1.612900 -2.609900 -10.513700 4.565700 -4.435000 22.896400 1.343800 -1.748100 9.040000 0.000000 -0.000000 0.000000 4.038700 8.676500 -48.240800 27.422900 -38.579500 9.761700 -0.733200 -9.880400 14.693400 0.000000 0.000000 0.000000 -7.125000 0.000000 0.000000 -18.977500 15.766000 -13.901300 0.000000 -0.000000 0.000000 0.006600 15.909000 26.615800 -33.865200 -43.984600 -14.019300 9.338400 -29.501400 50.071400 0.000000 0.000000 0.000000 7.125000 0.000000 -0.000000 71.215200 67.166800 -46.477200
-0.683633 18.155242 5.757846 -0.689175 -1.555412 2.512833 0.000000 0.000000 0.000000 -13.055343 -0.831650 11.274476 0.139158 -2.404485 -6.624969 -0.145955 10.618581 -12.596300 0.618543 -5.032980 -14.002703 0.000000 0.000000 0.000000 14.393170 -1.177871 12.934730 -0.507287 4.565698 -12.673924 -0.053990 -10.329743 -15.531317 -0.015379 -0.800639 2.200357 -1.158679 0.362065 2.065785 0.271770 0.447036 -2.733352 0.904743 0.261251 -3.982938 -1.591219 -2.695843 -10.685001 4.464033 -4.550437 23.168098 1.291257 -1.804158 9.167645 0.000000 0.000000 0.000000 4.315476 7.798023 -50.049515 28.153320 -39.256791 10.220617 -0.935264 -10.815619 14.319840 0.000000 0.000000 0.000000 -7.125000 0.000000 0.000000 -19.144210 16.123934 -13.880400 0.000000 0.000000 0.000000 -0.045552 15.235713 26.637676 -34.853743 -44.707109 -14.710459 8.411776 -32.836095 50.283231 0.000000 0.000000 0.000000 7.125000 0.000000 0.000000 71.048685 67.549443 -46.829470
-0.682551 18.157016 5.740723 -0.595097 -1.709172 2.470761 0.000000 0.000000 0.000000 -13.147148 -0.701948 11.217410 0.137942 -2.393588 -6.594775 -0.143312 10.593594 -12.605373 0.600718 -4.961486 -13.798868 0.000000 0.000000 0.000000 14.302601 -0.865950 13.004544 -0.508649 4.571485 -12.690292 -0.046451 -10.478857 -15.620759 -0.016353 -0.826080 2.270344 -1.206763 0.362572 2.247131 0.297343 0.444517 -2.715560 0.957329 0.262249 -4.067986 -1.556764 -2.755858 -10.755065 4.337010 -4.620500 23.335128 1.233663 -1.843916 9.237428 0.000000 0.000000 0.000000 4.521140 6.854249 -51.816095 28.893272 -39.925313 10.692308 -1.211587 -11.552274 14.026830 0.000000 0.000000 0.000000 -7.125000 0.000000 0.000000 -19.352769 16.406275 -13.924226 0.000000 0.000000 0.000000 -0.132974 14.455375 26.746013 -35.673750 -45.286916 -15.290374 6.988505 -35.940865 49.711485 0.000000 0.000000 0.000000 7.125000 0.000000 0.000000 68.817991 67.784903 -45.156453
-0.680733 18.158123 5.729392 -0.592274 -1.781134 2.457634 0.000000 0.000000 0.000000 -13.154290 -0.641202 11.180308 0.137714 -2.391991 -6.590259 -0.143200 10.603008 -12.623275 0.616824 -5.026360 -13.983753 0.000000 0.000000 0.000000 14.305274 -0.717641 13.015618 -0.508700 4.571700 -12.690993 -0.043589 -10.551092 -15.676902 -0.016121 -0.819954 2.253615 -1.149030 0.333681 2.305277 0.348907 0.409715 -2.702054 0.979707 0.243981 -4.085862 -1.513534 -2.741032 -10.534012 4.306537 -4.598600 23.264239 1.221043 -1.837989 9.168448 0.000000 0.000000 0.000000 4.661177 5.871678 -53.540635 29.591707 -40.540337 11.143483 -1.238848 -12.138721 13.265832 0.000000 0.000000 0.000000 -7.125000 0.000000 0.000000 -19.449372 17.124737 -13.676261 0.000000 0.000000 0.000000 -0.317225 13.585469 26.947784 -36.322245 -45.733226 -15.752906 5.359549 -38.420324 49.729694 0.000000 0.000000 0.000000 7.125000 0.000000 0.000000 67.724798 68.327335 -44.888860
-0.678243 18.158291 5.724974 -0.686315 -1.736051 2.457344 0.000000 0.000000 0.000000 -13.075996 -0.694935 11.143978 0.135343 -2.371413 -6.533252 -0.143653 10.611959 -12.629858 0.633148 -5.091148 -14.168733 0.000000 0.000000 0.000000 14.394638 -0.813027 13.000427 -0.511873 4.585932 -12.731249 -0.043037 -10.531887 -15.643814 -0.015737 -0.809066 2.223545 -0.969725 0.260067 2.247357 0.424496 0.322251 -2.688046 0.962526 0.196005 -4.035591 -1.410231 -2.776051 -10.479389 4.131013 -4.634864 23.413495 1.140527 -1.863326 9.204337 0.000000 0.000000 0.000000 4.707804 4.855781 -55.135205 30.194128 -41.058768 11.537135 -1.165113 -12.577624 12.395091 0.000000 0.000000 0.000000 -7.125000 0.000000 0.000000 -19.495424 17.944899 -13.336405 0.000000 0.000000 0.000000 -0.589518 12.731497 27.284139 -37.028774 -46.207087 -16.260984 1.973747 -39.291122 50.513615 0.000000 0.000000 0.000000 7.125000 0.000000 0.000000 67.277118 69.783551 -46.296309
-0.675351 18.158918 5.715945 -0.706598 -1.790424 2.425607 0.000000 0.000000 0.000000 -13.058539 -0.628218 11.177857 0.138633 -2.399857 -6.612005 -0.148734 10.644505 -12.585890 0.644150 -5.134304 -14.292012 0.000000 0.000000 0.000000 14.411483 -0.750070 13.006042 -0.510169 4.578480 -12.710054 -0.041145 -10.547416 -15.636203 -0.013845 -0.759692 2.087864 -0.851817 0.205364 2.292752 0.478088 0.255743 -2.666476 0.955301 0.160114 -4.036924 -1.427189 -2.814242 -10.534052 4.097645 -4.688609 23.617255 1.125500 -1.889845 9.287111 0.000000 0.000000 0.000000 4.685636 3.771128 -56.551643 30.724551 -41.505995 11.887031 -1.180362 -12.835852 11.678773 0.000000 0.000000 0.000000 -7.125000 0.000000 0.000000 -19.586754 18.620295 -13.093113 0.000000 0.000000 0.000000 -0.822413 11.856135 27.532962 -37.728167 -46.664154 -16.767819 -0.921046 -40.014733 51.067816 0.000000 0.000000 0.000000 7.125000 0.000000 0.000000 66.803301 71.000141 -47.339286
-0.673710 18.160118 5.697863 -0.525214 -2.010318 2.361474 0.000000 0.000000 0.000000 -13.239742 -0.403401 11.204724 0.143485 -2.441128 -6.726372 -0.155762 10.682833 -12.512508 0.643852 -5.133096 -14.288547 0.000000 0.000000 0.000000 14.226189 -0.420553 13.061767 -0.507235 4.565349 -12.672739 -0.033334 -10.671199 -15.691155 -0.011365 -0.688818 1.892844 -0.955958 0.192308 2.502333 0.477408 0.232108 -2.641962 1.014010 0.151873 -4.130311 -1.531737 -2.806935 -10.576277 4.215108 -4.691675 23.704863 1.182720 -1.886294 9.331461 0.000000 0.000000 0.000000 4.635515 2.617292 -57.856385 31.142885 -41.852826 12.165180 -1.098283 -13.066387 11.141573 0.000000 0.000000 0.000000 -7.125000 0.000000 0.000000 -19.595033 19.125644 -12.863341 0.000000 0.000000 0.000000 -0.981674 10.864337 27.558577 -38.071263 -46.884621 -17.017635 0.071504 -42.717097 51.288869 0.000000 0.000000 0.000000 7.125000 0.000000 0.000000 68.012222 70.737882 -48.101349
-0.671576 18.159547 5.696020 -0.596269 -2.001742 2.395945 0.000000 0.000000 0.000000 -13.177413 -0.406440 11.195838 0.145204 -2.455731 -6.766870 -0.160647 10.697182 -12.439774 0.654306 -5.173920 -14.405221 0.000000 0.000000 0.000000 14.288222 -0.511423 12.991661 -0.506633 4.562815 -12.665778 -0.033689 -10.613132 -15.616812 -0.010164 -0.651368 1.789963 -0.753037 0.099280 2.348131 0.528575 0.119431 -2.569732 0.959799 0.089474 -3.964572 -1.482794 -2.819051 -10.767747 4.112905 -4.701388 23.841312 1.135743 -1.892728 9.412108 0.000000 0.000000 0.000000 4.570691 1.429748 -59.075265 31.438603 -42.094843 12.362882 -0.905161 -13.409184 10.744501 0.000000 0.000000 0.000000 -7.125000 0.000000 0.000000 -19.513119 19.497975 -12.628913 0.000000 0.000000 0.000000 -1.075214 9.794397 27.492025 -38.188792 -46.959458 -17.103451 1.662210 -45.416701 51.360702 0.000000 0.000000 0.000000 7.125000 0.000000 0.000000 69.201563 70.215245 -48.532075
-0.670875 18.159644 5.691159 -0.648033 -2.021593 2.411185 0.000000 0.000000 0.000000 -13.130782 -0.404306 11.131854 0.142311 -2.431058 -6.698572 -0.159124 10.664753 -12.413147 0.652741 -5.167953 -14.388274 0.000000 0.000000 0.000000 14.336544 -0.543628 12.964736 -0.509364 4.574814 -12.699728 -0.034244 -10.580176 -15.579931 -0.011138 -0.682279 1.874933 -0.590005 0.025689 2.264426 0.558800 0.029362 -2.498250 0.904535 0.039594 -3.840743 -1.336095 -2.813345 -10.934346 3.945358 -4.686489 23.909497 1.052666 -1.887533 9.459321 0.000000 0.000000 0.000000 4.462100 0.252685 -60.098715 31.624533 -42.245729 12.487660 -0.667170 -13.759398 10.234301 0.000000 0.000000 0.000000 -7.125000 0.000000 0.000000 -19.414760 19.977044 -12.333967 0.000000 0.000000 0.000000 -1.119544 8.745418 27.440807 -38.241224 -46.992703 -17.141761 1.872119 -46.782779 51.351895 0.000000 0.000000 0.000000 7.125000 0.000000 0.000000 69.311360 70.139559 -48.538482
-0.670879 18.160490 5.683209 -0.647267 -2.108013 2.405593 0.000000 0.000000 0.000000 -13.129491 -0.331900 11.086193 0.141363 -2.423026 -6.676351 -0.159153 10.636527 -12.362579 0.640450 -5.119848 -14.250682 0.000000 0.000000 0.000000 14.341210 -0.418177 12.965811 -0.508973 4.573099 -12.694966 -0.032563 -10.615661 -15.604101 -0.011163 -0.681756 1.873479 -0.481324 -0.018686 2.269235 0.556451 -0.025646 -2.437600 0.844083 0.008632 -3.779417 -1.248445 -2.788895 -11.011758 3.910326 -4.662148 23.901575 1.027493 -1.871391 9.467511 0.000000 0.000000 0.000000 4.286350 -0.873248 -60.887576 31.676657 -42.287888 12.522703 -0.290506 -14.125751 9.748678 0.000000 0.000000 0.000000 -7.125000 0.000000 0.000000 -19.218997 20.432338 -11.983898 0.000000 0.000000 0.000000 -1.166061 7.795238 27.469824 -38.242635 -46.993620 -17.142809 1.963860 -47.593491 51.322926 0.000000 0.000000 0.000000 7.125000 0.000000 0.000000 69.294769 70.097374 -48.472157
-0.688831 18.157175 5.685078 -0.607399 -1.860490 2.257724 0.000000 0.000000 0.000000 -13.125000 -0.560401 11.254504 0.138082 -2.394914 -6.598272 -0.158917 10.621522 -12.339655 0.650963 -5.160850 -14.367993 0.000000 0.000000 0.000000 14.449258 -0.083660 13.404957 -0.510462 4.579716 -12.713592 -0.052176 -10.894704 -16.261067 -0.012326 -0.715798 1.967076 -0.668511 -0.165796 2.268726 0.597741 -0.228359 -2.303162 1.002169 -0.087874 -3.635321 -1.205254 -2.775774 -11.145319 3.926352 -4.659688 23.938945 1.024127 -1.862289 9.505554 0.000000 0.000000 0.000000 4.068950 -1.895899 -61.457971 31.644606 -42.262009 12.501166 0.218546 -14.489352 9.494824 0.000000 0.000000 0.000000 -7.125000 0.000000 0.000000 -18.903167 20.667975 -11.656034 0.000000 0.000000 0.000000 -1.251619 6.878218 27.613845 -38.177865 -46.952554 -17.095500 1.955272 -48.031695 51.345648 0.000000 0.000000 0.000000 7.125000 0.000000 0.000000 69.347660 70.108671 -48.533402
-0.700243 18.155580 5.683228 -0.568784 -1.723376 2.168774 0.000000 0.000000 0.000000 -13.138652 -0.708976 11.293245 0.131974 -2.341183 -6.449498 -0.155383 10.607085 -12.385903 0.657254 -5.185395 -14.438122 0.000000 0.000000 0.000000 14.497481 0.080087 13.658876 -0.514120 4.595695 -12.758931 -0.060677 -11.066491 -16.610950 -0.013071 -0.738935 2.030808 -0.771425 -0.271767 2.297165 0.627170 -0.373326 -2.208796 1.097663 -0.157697 -3.550051 -1.163418 -2.765502 -11.300693 3.908147 -4.654211 24.013833 1.009313 -1.854682 9.560040 0.000000 0.000000 0.000000 3.787548 -2.763246 -61.749462 31.551332 -42.186533 12.438525 0.710949 -14.686593 9.433939 0.000000 0.000000 0.000000 -7.125000 0.000000 0.000000 -18.573887 20.721026 -11.405415 0.000000 0.000000 0.000000 -1.406960 5.960649 27.883515 -37.980329 -46.826587 -16.951343 1.796113 -48.219221 51.353188 0.000000 0.000000 0.000000 7.125000 0.000000 0.000000 69.266799 70.166020 -48.530918
